<svg width="14" height="12" viewBox="0 0 14 12" fill="none" xmlns="http://www.w3.org/2000/svg">
<path d="M12.3333 11.3334H1.66668C1.31305 11.3334 0.973916 11.1929 0.723868 10.9428C0.473819 10.6928 0.333344 10.3536 0.333344 10V1.94202C0.348299 1.59855 0.495349 1.27413 0.743796 1.03649C0.992242 0.798849 1.32288 0.666362 1.66668 0.666688H12.3333C12.687 0.666688 13.0261 0.807163 13.2762 1.05721C13.5262 1.30726 13.6667 1.6464 13.6667 2.00002V10C13.6667 10.3536 13.5262 10.6928 13.2762 10.9428C13.0261 11.1929 12.687 11.3334 12.3333 11.3334ZM1.66668 3.24535V10H12.3333V3.24535L7.00001 6.80002L1.66668 3.24535ZM2.20001 2.00002L7.00001 5.20002L11.8 2.00002H2.20001Z" fill="black"/>
</svg>
