<svg width="14" height="14" viewBox="0 0 14 14" fill="none" xmlns="http://www.w3.org/2000/svg">
<path d="M10.8047 7.19532C10.7428 7.13336 10.6693 7.0842 10.5885 7.05066C10.5076 7.01712 10.4209 6.99986 10.3333 6.99986C10.2458 6.99986 10.1591 7.01712 10.0782 7.05066C9.99733 7.0842 9.92386 7.13336 9.862 7.19532L8.79933 8.25799C8.30667 8.11132 7.38733 7.77799 6.80467 7.19532C6.222 6.61266 5.88867 5.69332 5.742 5.20066L6.80467 4.13799C6.86663 4.07613 6.91579 4.00266 6.94933 3.92179C6.98287 3.84091 7.00013 3.75421 7.00013 3.66666C7.00013 3.5791 6.98287 3.49241 6.94933 3.41153C6.91579 3.33065 6.86663 3.25718 6.80467 3.19533L4.138 0.528658C4.07614 0.466694 4.00267 0.417536 3.92179 0.383995C3.84092 0.350455 3.75422 0.333191 3.66667 0.333191C3.57911 0.333191 3.49241 0.350455 3.41154 0.383995C3.33066 0.417536 3.25719 0.466694 3.19533 0.528658L1.38733 2.33666C1.134 2.58999 0.991332 2.93799 0.996665 3.29332C1.012 4.24266 1.26333 7.53999 3.862 10.1387C6.46067 12.7373 9.758 12.988 10.708 13.004H10.7267C11.0787 13.004 11.4113 12.8653 11.6633 12.6133L13.4713 10.8053C13.5333 10.7435 13.5825 10.67 13.616 10.5891C13.6495 10.5082 13.6668 10.4215 13.6668 10.334C13.6668 10.2464 13.6495 10.1597 13.616 10.0789C13.5825 9.99799 13.5333 9.92452 13.4713 9.86266L10.8047 7.19532ZM10.72 11.67C9.888 11.656 7.04133 11.4327 4.80467 9.19532C2.56067 6.95132 2.34333 4.09466 2.33 3.27933L3.66667 1.94266L5.39067 3.66666L4.52867 4.52866C4.45031 4.60696 4.39269 4.70355 4.36103 4.8097C4.32937 4.91586 4.32466 5.02823 4.34733 5.13666C4.36333 5.21332 4.75467 7.03132 5.86133 8.13799C6.968 9.24466 8.786 9.63599 8.86266 9.65199C8.97103 9.6753 9.08351 9.67097 9.18976 9.63939C9.29601 9.60782 9.39261 9.55002 9.47066 9.47132L10.3333 8.60932L12.0573 10.3333L10.72 11.67Z" fill="black"/>
</svg>
