<svg width="29" height="17" viewBox="0 0 29 17" fill="none" xmlns="http://www.w3.org/2000/svg">
<g clip-path="url(#clip0)">
<path d="M0 5.25877V9.3159H28.6123V8.15353H11.4449V6.99115H28.6123V5.85113H11.4449V4.6664H28.6123V3.52638H11.4449V2.364H28.6123V1.20163H0V5.25877ZM0 11.0483V11.6183H28.6123V10.4783H0V11.0483ZM0 13.373V13.943H28.6123V12.803H0V13.373ZM0 15.6866V16.2678H28.6123V15.1054H0V15.6866Z" fill="#B31C31"/>
<path d="M0 9.3159H11.4449V0.732208H0" fill="#39386E"/>
<path d="M0 5.25875V13.373V5.25875ZM1.00814 1.71575L1.05955 1.87222H1.39485L1.26744 1.9661C1.19814 2.01752 1.14002 2.07116 1.14002 2.08458C1.14002 2.10022 1.16014 2.16952 1.18473 2.24105C1.20932 2.31258 1.22944 2.37517 1.22944 2.37964C1.22944 2.38411 1.17132 2.34835 1.09979 2.29917C1.02825 2.24776 0.961195 2.20752 0.950018 2.20752C0.941077 2.20752 0.878487 2.24776 0.811427 2.29693C0.679542 2.39976 0.670601 2.38858 0.737661 2.19634C0.76225 2.12481 0.775662 2.05999 0.764485 2.05328C0.755544 2.04658 0.697425 2.0041 0.637071 1.96163L0.525304 1.8834L0.686248 1.87669L0.847193 1.86998L0.898605 1.71575C0.925429 1.62857 0.950018 1.55927 0.952253 1.55927C0.956724 1.55927 0.981313 1.62857 1.00814 1.71575ZM5.03621 1.87669L5.19716 1.8834L5.07421 1.97057C5.00715 2.01975 4.94903 2.05999 4.9468 2.06222C4.94233 2.06446 4.96245 2.12928 4.98704 2.20528C5.01386 2.28129 5.02951 2.35058 5.0228 2.35729C5.01386 2.36399 4.96021 2.3327 4.89986 2.28799C4.8395 2.24329 4.77915 2.20752 4.76797 2.20752C4.7568 2.20752 4.69421 2.24776 4.62715 2.29693C4.56232 2.34611 4.5042 2.38188 4.49973 2.37964C4.49526 2.37517 4.51314 2.31258 4.53773 2.24105C4.56232 2.16952 4.58244 2.09799 4.58244 2.08234C4.58244 2.06669 4.52432 2.01305 4.45503 1.96387L4.32538 1.87222H4.66291L4.71656 1.70904L4.76797 1.5481L4.82162 1.70904L4.87527 1.86998L5.03621 1.87669ZM6.7306 1.71575L6.78201 1.87222H7.11731L6.9899 1.9661C6.9206 2.01752 6.86248 2.07116 6.86248 2.08458C6.86248 2.10022 6.8826 2.16952 6.90719 2.24105C6.93178 2.31258 6.9519 2.37517 6.9519 2.37964C6.9519 2.38411 6.89378 2.34835 6.82225 2.29917C6.75072 2.24776 6.68366 2.20752 6.67248 2.20752C6.66354 2.20752 6.60095 2.24776 6.53389 2.29693C6.402 2.39976 6.39306 2.38858 6.46012 2.19634C6.48471 2.12481 6.49812 2.05999 6.48695 2.05328C6.47801 2.04658 6.41989 2.0041 6.35953 1.96163L6.24777 1.8834L6.40871 1.87669L6.56965 1.86998L6.62107 1.71575C6.64789 1.62857 6.67248 1.55927 6.67471 1.55927C6.67919 1.55927 6.70377 1.62857 6.7306 1.71575ZM10.7587 1.87669L10.9196 1.8834L10.7967 1.97057C10.7296 2.01975 10.6715 2.05999 10.6693 2.06222C10.6648 2.06446 10.6849 2.12928 10.7095 2.20528C10.7363 2.28129 10.752 2.35058 10.7453 2.35729C10.7363 2.36399 10.6827 2.3327 10.6223 2.28799C10.562 2.24329 10.5016 2.20752 10.4904 2.20752C10.4793 2.20752 10.4167 2.24776 10.3496 2.29693C10.2848 2.34611 10.2267 2.38188 10.2222 2.37964C10.2177 2.37517 10.2356 2.31258 10.2602 2.24105C10.2848 2.16952 10.3049 2.09799 10.3049 2.08234C10.3049 2.06669 10.2468 2.01305 10.1775 1.96387L10.0478 1.87222H10.3854L10.439 1.70904L10.4904 1.5481L10.5441 1.70904L10.5977 1.86998L10.7587 1.87669ZM2.91935 1.72022L2.96406 1.86104L3.12724 1.87222L3.29042 1.8834L3.18312 1.96163C3.125 2.0041 3.06688 2.04658 3.0557 2.05328C3.04229 2.06222 3.0557 2.13152 3.08476 2.21646C3.11159 2.29917 3.12947 2.3707 3.125 2.37517C3.12053 2.37964 3.06465 2.34388 3.00206 2.2947C2.93723 2.24776 2.87464 2.20752 2.86123 2.20752C2.84782 2.20752 2.78299 2.24776 2.7204 2.29693C2.65558 2.34388 2.60193 2.37741 2.59746 2.36846C2.59523 2.35729 2.61311 2.29246 2.6377 2.2187C2.66229 2.14717 2.6824 2.08234 2.6824 2.0734C2.6824 2.06446 2.62428 2.01975 2.55499 1.97057L2.42758 1.8834L2.59299 1.87222L2.75841 1.86104L2.80311 1.72022C2.8277 1.64422 2.85452 1.58163 2.86123 1.58163C2.86794 1.58163 2.89476 1.64422 2.91935 1.72022ZM8.64181 1.72022L8.68652 1.86104L8.8497 1.87222L9.01288 1.8834L8.90558 1.96163C8.84746 2.0041 8.78934 2.04658 8.77817 2.05328C8.76475 2.06222 8.77817 2.13152 8.80723 2.21646C8.83405 2.29917 8.85193 2.3707 8.84746 2.37517C8.84299 2.37964 8.78711 2.34388 8.72452 2.2947C8.65969 2.24776 8.5971 2.20752 8.58369 2.20752C8.57028 2.20752 8.50546 2.24776 8.44287 2.29693C8.37804 2.34388 8.32439 2.37741 8.31992 2.36846C8.31769 2.35729 8.33557 2.29246 8.36016 2.2187C8.38475 2.14717 8.40487 2.08234 8.40487 2.0734C8.40487 2.06446 8.34675 2.01975 8.27745 1.97057L8.15004 1.8834L8.31545 1.87222L8.48087 1.86104L8.52557 1.72022C8.55016 1.64422 8.57699 1.58163 8.58369 1.58163C8.5904 1.58163 8.61722 1.64422 8.64181 1.72022ZM2.18616 2.67694H2.35604L2.21969 2.77977L2.0811 2.88036L2.11463 2.98542C2.18616 3.21566 2.18839 3.20895 2.06992 3.12177C2.01404 3.0793 1.95145 3.03683 1.9358 3.02565C1.91345 3.01001 1.86874 3.03012 1.77933 3.09718C1.71227 3.1486 1.65191 3.19107 1.64521 3.19107C1.6385 3.19107 1.65415 3.13518 1.67874 3.06365C1.70109 2.99436 1.72121 2.92059 1.72121 2.90047C1.72121 2.88036 1.66309 2.82447 1.59379 2.7753L1.46638 2.68812L1.63403 2.68141L1.80168 2.67471L1.85533 2.51376L1.90674 2.35282L1.96039 2.51376L2.01627 2.67694H2.18616ZM3.86937 2.52047L3.92078 2.67471L4.08619 2.68141L4.25161 2.68812L4.12643 2.77753C4.05937 2.82671 4.00125 2.88259 4.00125 2.90271C4.00125 2.92283 4.02137 2.99436 4.04372 3.06365C4.06831 3.13518 4.08396 3.19107 4.07725 3.19107C4.07055 3.19107 4.01019 3.1486 3.94313 3.09718L3.82019 3.00553L3.68383 3.10165C3.53183 3.20672 3.53854 3.21566 3.60783 2.98542L3.64136 2.88036L3.50277 2.77977L3.36642 2.67694H3.70842L3.7576 2.52047C3.78666 2.43329 3.81125 2.36399 3.81348 2.36399C3.81795 2.36399 3.84254 2.43329 3.86937 2.52047ZM7.90862 2.67694H8.07851L7.94215 2.77977L7.80356 2.88036L7.83709 2.98542C7.90862 3.21566 7.91086 3.20895 7.79238 3.12177C7.7365 3.0793 7.67391 3.03683 7.65826 3.02565C7.63591 3.01001 7.5912 3.03012 7.50179 3.09718C7.43473 3.1486 7.37437 3.19107 7.36767 3.19107C7.36096 3.19107 7.37661 3.13518 7.4012 3.06365C7.42355 2.99436 7.44367 2.92059 7.44367 2.90047C7.44367 2.88036 7.38555 2.82447 7.31626 2.7753L7.18884 2.68812L7.35649 2.68141L7.52414 2.67471L7.57779 2.51376L7.6292 2.35282L7.68285 2.51376L7.73873 2.67694H7.90862ZM9.59183 2.52047L9.64324 2.67471L9.80866 2.68141L9.97407 2.68812L9.84889 2.77753C9.78183 2.82671 9.72371 2.88259 9.72371 2.90271C9.72371 2.92283 9.74383 2.99436 9.76618 3.06365C9.79077 3.13518 9.80642 3.19107 9.79972 3.19107C9.79301 3.19107 9.73265 3.1486 9.66559 3.09718L9.54265 3.00553L9.4063 3.10165C9.25429 3.20672 9.261 3.21566 9.33029 2.98542L9.36382 2.88036L9.22523 2.77977L9.08888 2.67694H9.43088L9.48006 2.52047C9.50912 2.43329 9.53371 2.36399 9.53594 2.36399C9.54042 2.36399 9.565 2.43329 9.59183 2.52047ZM5.78058 2.52494L5.82529 2.66576L5.9907 2.67694L6.15612 2.68812L6.0287 2.78424C5.95941 2.83565 5.90129 2.88706 5.90129 2.89824C5.90129 2.90718 5.92141 2.97424 5.94599 3.04577C5.97058 3.1173 5.98847 3.17989 5.984 3.18436C5.97953 3.1866 5.92141 3.15083 5.85658 3.10165C5.78952 3.05248 5.7314 3.01224 5.7247 3.01224C5.71799 3.01224 5.6554 3.05248 5.59058 3.10165C5.52352 3.15083 5.4654 3.1866 5.46093 3.18213C5.45646 3.17989 5.47434 3.1173 5.49893 3.04577C5.52352 2.97424 5.54363 2.90494 5.54363 2.89153C5.5414 2.87812 5.48552 2.82671 5.41398 2.77753L5.28657 2.68812L5.45199 2.67694L5.61964 2.66576L5.66434 2.52494C5.68893 2.44894 5.71575 2.38635 5.72246 2.38635C5.72917 2.38635 5.75599 2.44894 5.78058 2.52494ZM1.01708 3.34754L1.05731 3.48166H1.2272L1.39709 3.4839L1.32108 3.54425C1.27861 3.57778 1.21826 3.62696 1.18696 3.65378L1.12884 3.70072L1.17802 3.84826C1.20485 3.92873 1.22049 3.99579 1.21379 3.99579C1.20932 3.99579 1.14673 3.95555 1.07967 3.90638L0.954489 3.81696L0.831545 3.90638C0.76225 3.95555 0.701896 3.99132 0.697425 3.98461C0.690719 3.97791 0.730955 3.83484 0.775662 3.71414C0.780132 3.70296 0.722014 3.64708 0.646012 3.59119L0.509657 3.49284L0.677307 3.48613L0.847193 3.47943L0.894135 3.33636C0.920959 3.25589 0.950018 3.19554 0.958959 3.20001C0.967901 3.20672 0.994725 3.27154 1.01708 3.34754ZM2.91935 3.32966L2.96406 3.47048L3.125 3.47719C3.21441 3.48166 3.28594 3.4906 3.28594 3.49954C3.28371 3.50849 3.23006 3.55319 3.163 3.60013C3.09594 3.64708 3.04006 3.69178 3.04006 3.70296C3.04006 3.7119 3.06018 3.77896 3.08476 3.85049C3.10935 3.92202 3.125 3.98461 3.12053 3.99132C3.11382 3.99579 3.05571 3.95779 2.98641 3.90638L2.86347 3.81249L2.73829 3.90638C2.66899 3.95779 2.60864 3.99579 2.60193 3.99132C2.59746 3.98461 2.61311 3.92202 2.6377 3.85049C2.66229 3.77896 2.6824 3.71414 2.6824 3.7052C2.6824 3.69625 2.62428 3.64484 2.55499 3.59119L2.42534 3.49284L2.59075 3.48166L2.75841 3.47048L2.80311 3.32966C2.8277 3.25366 2.85452 3.19107 2.86123 3.19107C2.86794 3.19107 2.89476 3.25366 2.91935 3.32966ZM4.82833 3.33636L4.87527 3.47943L5.04739 3.48613L5.21951 3.49284L5.07868 3.59119C5.00045 3.64708 4.94233 3.70072 4.9468 3.71414C4.99151 3.83484 5.03174 3.97791 5.02504 3.98461C5.02057 3.99132 4.96021 3.95555 4.89315 3.90638L4.76797 3.8192L4.64726 3.90638C4.5802 3.95555 4.51985 3.99579 4.51091 3.99579C4.5042 3.99579 4.51761 3.92873 4.54444 3.84826L4.59362 3.70072L4.5355 3.65378C4.5042 3.62696 4.44385 3.57778 4.40138 3.54425L4.32538 3.4839L4.49526 3.48166H4.66515L4.69197 3.38778C4.73221 3.26036 4.75903 3.19107 4.77021 3.19107C4.77468 3.19107 4.8015 3.25589 4.82833 3.33636ZM6.73954 3.34754L6.77978 3.48166H6.94966L7.11955 3.4839L7.04355 3.54425C7.00107 3.57778 6.94072 3.62696 6.90942 3.65378L6.85131 3.70072L6.90048 3.84826C6.92731 3.92873 6.94295 3.99579 6.93625 3.99579C6.93178 3.99579 6.86919 3.95555 6.80213 3.90638L6.67695 3.81696L6.55401 3.90638C6.48471 3.95555 6.42436 3.99132 6.41989 3.98461C6.41318 3.97791 6.45342 3.83484 6.49812 3.71414C6.50259 3.70296 6.44447 3.64708 6.36847 3.59119L6.23212 3.49284L6.39977 3.48613L6.56965 3.47943L6.6166 3.33636C6.64342 3.25589 6.67248 3.19554 6.68142 3.20001C6.69036 3.20672 6.71719 3.27154 6.73954 3.34754ZM8.64181 3.32966L8.68652 3.47048L8.84746 3.47719C8.93687 3.48166 9.00841 3.4906 9.00841 3.49954C9.00617 3.50849 8.95252 3.55319 8.88546 3.60013C8.8184 3.64708 8.76252 3.69178 8.76252 3.70296C8.76252 3.7119 8.78264 3.77896 8.80723 3.85049C8.83181 3.92202 8.84746 3.98461 8.84299 3.99132C8.83628 3.99579 8.77817 3.95779 8.70887 3.90638L8.58593 3.81249L8.46075 3.90638C8.39145 3.95779 8.3311 3.99579 8.32439 3.99132C8.31992 3.98461 8.33557 3.92202 8.36016 3.85049C8.38475 3.77896 8.40487 3.71414 8.40487 3.7052C8.40487 3.69625 8.34675 3.64484 8.27745 3.59119L8.1478 3.49284L8.31322 3.48166L8.48087 3.47048L8.52557 3.32966C8.55016 3.25366 8.57699 3.19107 8.58369 3.19107C8.5904 3.19107 8.61722 3.25366 8.64181 3.32966ZM10.5508 3.33636L10.5977 3.47943L10.7699 3.48613L10.942 3.49284L10.8011 3.59119C10.7229 3.64708 10.6648 3.70072 10.6693 3.71414C10.714 3.83484 10.7542 3.97791 10.7475 3.98461C10.743 3.99132 10.6827 3.95555 10.6156 3.90638L10.4904 3.8192L10.3697 3.90638C10.3027 3.95555 10.2423 3.99579 10.2334 3.99579C10.2267 3.99579 10.2401 3.92873 10.2669 3.84826L10.3161 3.70072L10.258 3.65378C10.2267 3.62696 10.1663 3.57778 10.1238 3.54425L10.0478 3.4839L10.2177 3.48166H10.3876L10.4144 3.38778C10.4547 3.26036 10.4815 3.19107 10.4927 3.19107C10.4971 3.19107 10.524 3.25589 10.5508 3.33636ZM2.17498 4.31321L2.33593 4.31991L2.22416 4.39815C2.16381 4.44062 2.10569 4.48309 2.09675 4.4898C2.0878 4.4965 2.10122 4.56356 2.1258 4.6418C2.15263 4.7178 2.16828 4.7871 2.16157 4.79157C2.15486 4.79827 2.09451 4.76474 2.02969 4.71557L1.90898 4.62839L1.77709 4.72451C1.70333 4.77592 1.64074 4.81616 1.6385 4.81392C1.63403 4.80945 1.65191 4.7491 1.6765 4.67757C1.70109 4.60604 1.72121 4.5345 1.72121 4.51886C1.72121 4.50321 1.66533 4.44956 1.59603 4.40038L1.47085 4.31097L1.63627 4.30427L1.79945 4.29756L1.84862 4.15226C1.87545 4.07179 1.90004 4.00249 1.90004 3.99579C1.90227 3.98908 1.9291 4.05614 1.95815 4.14556L2.01404 4.3065L2.17498 4.31321ZM3.87607 4.15673L3.92302 4.29756L4.08843 4.30427L4.25608 4.31097L4.12867 4.40038C4.05937 4.44956 4.00125 4.50321 4.00125 4.51886C4.00125 4.5345 4.02137 4.60604 4.04596 4.67757C4.07055 4.7491 4.09067 4.81169 4.09067 4.81616C4.09067 4.82063 4.02808 4.78039 3.95207 4.72674L3.81348 4.62615L3.69278 4.71557C3.62795 4.76474 3.5676 4.79827 3.56089 4.79157C3.55418 4.7871 3.56983 4.7178 3.59666 4.6418C3.62124 4.56356 3.63466 4.4965 3.62572 4.4898C3.61454 4.48309 3.55866 4.44062 3.50054 4.39815L3.39324 4.31991L3.54971 4.31321L3.70842 4.3065L3.7576 4.15226C3.78666 4.06732 3.81348 4.00249 3.81795 4.00697C3.82466 4.01367 3.84925 4.08073 3.87607 4.15673ZM5.77834 4.14779L5.82305 4.29756L5.98847 4.30874L6.15388 4.31991L6.02647 4.40709C5.95717 4.45403 5.90129 4.50097 5.90129 4.50992C5.90129 4.51886 5.92141 4.58368 5.94599 4.65521C5.97058 4.72674 5.9907 4.7938 5.9907 4.80498C5.9907 4.81616 5.93705 4.78486 5.87223 4.73345C5.80517 4.68427 5.74034 4.64404 5.7247 4.64404C5.71128 4.64404 5.64422 4.68427 5.57716 4.73345C5.5101 4.78263 5.45422 4.81616 5.45422 4.80498C5.45422 4.7938 5.47434 4.72674 5.49893 4.65521C5.52352 4.58368 5.54363 4.51886 5.54363 4.50992C5.54363 4.50097 5.48775 4.45403 5.41846 4.40709L5.29104 4.31991L5.45646 4.30874L5.62187 4.29756L5.66658 4.14779C5.69117 4.06285 5.71575 3.99579 5.72246 3.99579C5.72917 3.99579 5.75376 4.06285 5.77834 4.14779ZM7.89744 4.31321L8.05839 4.31991L7.94662 4.39815C7.88627 4.44062 7.82815 4.48309 7.81921 4.4898C7.81027 4.4965 7.82368 4.56356 7.84827 4.6418C7.87509 4.7178 7.89074 4.7871 7.88403 4.79157C7.87733 4.79827 7.81697 4.76474 7.75215 4.71557L7.63144 4.62839L7.49955 4.72451C7.42579 4.77592 7.3632 4.81616 7.36096 4.81392C7.35649 4.80945 7.37437 4.7491 7.39896 4.67757C7.42355 4.60604 7.44367 4.5345 7.44367 4.51886C7.44367 4.50321 7.38779 4.44956 7.31849 4.40038L7.19331 4.31097L7.35873 4.30427L7.52191 4.29756L7.57108 4.15226C7.59791 4.07179 7.6225 4.00249 7.6225 3.99579C7.62473 3.98908 7.65156 4.05614 7.68062 4.14556L7.7365 4.3065L7.89744 4.31321ZM9.59853 4.15673L9.64548 4.29756L9.81089 4.30427L9.97854 4.31097L9.85113 4.40038C9.78183 4.44956 9.72371 4.50321 9.72371 4.51886C9.72371 4.5345 9.74383 4.60604 9.76842 4.67757C9.79301 4.7491 9.81313 4.81169 9.81313 4.81616C9.81313 4.82063 9.75054 4.78039 9.67454 4.72674L9.53594 4.62615L9.41524 4.71557C9.35041 4.76474 9.29006 4.79827 9.28335 4.79157C9.27665 4.7871 9.29229 4.7178 9.31912 4.6418C9.34371 4.56356 9.35712 4.4965 9.34818 4.4898C9.337 4.48309 9.28112 4.44062 9.223 4.39815L9.1157 4.31991L9.27217 4.31321L9.43088 4.3065L9.48006 4.15226C9.50912 4.06732 9.53594 4.00249 9.54042 4.00697C9.54712 4.01367 9.57171 4.08073 9.59853 4.15673ZM1.00814 4.95698L1.05955 5.11122L1.2272 5.11793L1.39485 5.12463L1.26744 5.21181C1.19814 5.26099 1.14002 5.31017 1.14002 5.32358C1.14002 5.33699 1.16014 5.41076 1.18249 5.48899C1.20932 5.57617 1.21602 5.62088 1.20038 5.61194C1.18473 5.603 1.12437 5.56052 1.06402 5.51805C0.988019 5.4644 0.947783 5.44652 0.925429 5.46217C0.909782 5.47335 0.849428 5.51582 0.793544 5.55605C0.737661 5.59629 0.692954 5.62311 0.692954 5.61194C0.692954 5.603 0.713072 5.53146 0.735426 5.45323L0.780132 5.3124L0.643777 5.21181L0.509657 5.11346H0.847193L0.89637 4.95698C0.925429 4.86981 0.950018 4.80051 0.952253 4.80051C0.956724 4.80051 0.981313 4.86981 1.00814 4.95698ZM5.04739 5.11346H5.21728L5.08092 5.21405L4.94456 5.3124L4.98704 5.45323C5.00939 5.53146 5.02951 5.603 5.02951 5.61194C5.02951 5.62088 4.97362 5.58735 4.90656 5.53817C4.8395 5.48899 4.77915 5.44876 4.77021 5.44876C4.7635 5.44876 4.70985 5.48229 4.65174 5.52252C4.49079 5.63876 4.49303 5.63876 4.53997 5.48899C4.56232 5.41076 4.58244 5.33699 4.58244 5.32358C4.58244 5.31017 4.52656 5.25875 4.45726 5.21181L4.32985 5.12463L4.4975 5.11793L4.66291 5.11122L4.71656 4.95028L4.76797 4.78933L4.82162 4.95028L4.8775 5.11346H5.04739ZM6.7306 4.95698L6.78201 5.11122L6.94966 5.11793L7.11731 5.12463L6.9899 5.21181C6.9206 5.26099 6.86248 5.31017 6.86248 5.32358C6.86248 5.33699 6.8826 5.41076 6.90495 5.48899C6.93178 5.57617 6.93848 5.62088 6.92284 5.61194C6.90719 5.603 6.84684 5.56052 6.78648 5.51805C6.71048 5.4644 6.67024 5.44652 6.64789 5.46217C6.63224 5.47335 6.57189 5.51582 6.51601 5.55605C6.46012 5.59629 6.41542 5.62311 6.41542 5.61194C6.41542 5.603 6.43553 5.53146 6.45789 5.45323L6.50259 5.3124L6.36624 5.21181L6.23212 5.11346H6.56965L6.61883 4.95698C6.64789 4.86981 6.67248 4.80051 6.67471 4.80051C6.67919 4.80051 6.70377 4.86981 6.7306 4.95698ZM10.7699 5.11346H10.9397L10.8034 5.21405L10.667 5.3124L10.7095 5.45323C10.7319 5.53146 10.752 5.603 10.752 5.61194C10.752 5.62088 10.6961 5.58735 10.629 5.53817C10.562 5.48899 10.5016 5.44876 10.4927 5.44876C10.486 5.44876 10.4323 5.48229 10.3742 5.52252C10.2133 5.63876 10.2155 5.63876 10.2624 5.48899C10.2848 5.41076 10.3049 5.33699 10.3049 5.32358C10.3049 5.31017 10.249 5.25875 10.1797 5.21181L10.0523 5.12463L10.22 5.11793L10.3854 5.11122L10.439 4.95028L10.4904 4.78933L10.5441 4.95028L10.6 5.11346H10.7699ZM2.91935 4.96145L2.96406 5.10228L3.13171 5.11346L3.29712 5.12463L3.18535 5.20287C3.125 5.24534 3.06688 5.28781 3.0557 5.29452C3.04006 5.3057 3.08029 5.48229 3.125 5.603C3.13171 5.62088 3.07582 5.59182 2.99982 5.53817L2.86123 5.44205L2.72264 5.53817C2.64664 5.59182 2.59075 5.62088 2.59746 5.603C2.64217 5.48229 2.6824 5.3057 2.66676 5.29452C2.65558 5.28781 2.59746 5.24534 2.53711 5.20287L2.42534 5.12463L2.59075 5.11346L2.75841 5.10228L2.80311 4.96145C2.8277 4.88545 2.85452 4.82286 2.86123 4.82286C2.86794 4.82286 2.89476 4.88545 2.91935 4.96145ZM8.64181 4.96145L8.68652 5.10228L8.85417 5.11346L9.01958 5.12463L8.90782 5.20287C8.84746 5.24534 8.78934 5.28781 8.77817 5.29452C8.76252 5.3057 8.80275 5.48229 8.84746 5.603C8.85417 5.62088 8.79828 5.59182 8.72228 5.53817L8.58369 5.44205L8.4451 5.53817C8.3691 5.59182 8.31322 5.62088 8.31992 5.603C8.36463 5.48229 8.40486 5.3057 8.38922 5.29452C8.37804 5.28781 8.31992 5.24534 8.25957 5.20287L8.1478 5.12463L8.31322 5.11346L8.48087 5.10228L8.52557 4.96145C8.55016 4.88545 8.57699 4.82286 8.58369 4.82286C8.5904 4.82286 8.61722 4.88545 8.64181 4.96145ZM1.9671 5.77288L2.01404 5.91594L2.18392 5.92265L2.35381 5.92935L2.21745 6.02547C2.14145 6.07912 2.07886 6.12606 2.07886 6.1283C2.07886 6.13277 2.09898 6.19312 2.12357 6.26466C2.14816 6.33619 2.16828 6.40325 2.16828 6.41442C2.16828 6.4256 2.10792 6.3943 2.03639 6.34289L1.90451 6.24901L1.78156 6.34066C1.71674 6.39207 1.65415 6.43231 1.64744 6.43231C1.64074 6.43231 1.65862 6.36301 1.68768 6.27807L1.73909 6.12383L1.60274 6.02547L1.46415 5.92935L1.63403 5.92265L1.80392 5.91594L1.83298 5.82429C1.87098 5.69688 1.8978 5.62758 1.90898 5.62758C1.91345 5.62758 1.94027 5.69241 1.9671 5.77288ZM3.87831 5.78182L3.91854 5.91594L4.08843 5.92265L4.25832 5.92935L4.12196 6.02771L3.98337 6.12383L4.03478 6.27807C4.06384 6.36301 4.08396 6.43231 4.07725 6.43231C4.07055 6.43231 4.01243 6.39207 3.94537 6.34289C3.87831 6.29371 3.82019 6.25348 3.81572 6.25348C3.81125 6.25348 3.75537 6.29371 3.68831 6.34289C3.62348 6.39207 3.56536 6.42783 3.55866 6.42336C3.55195 6.41442 3.59219 6.27136 3.63689 6.15065C3.64136 6.13501 3.58324 6.08136 3.50724 6.02771L3.36865 5.92935L3.53854 5.92265L3.70842 5.91594L3.75537 5.77288C3.78219 5.69241 3.81125 5.63205 3.82019 5.63653C3.82913 5.64323 3.85596 5.70806 3.87831 5.78182ZM5.78058 5.76618L5.82529 5.907L5.99294 5.91818L6.15835 5.92935L6.03094 6.02771C5.95941 6.08136 5.90129 6.13277 5.90129 6.14171C5.90129 6.15065 5.92141 6.21548 5.94599 6.28701C5.97058 6.35854 5.98847 6.42113 5.984 6.4256C5.97953 6.43007 5.91917 6.39207 5.84764 6.34066L5.72023 6.24901L5.59728 6.34289C5.52799 6.3943 5.46987 6.43231 5.46316 6.42783C5.45869 6.42113 5.47434 6.35854 5.49893 6.28701C5.52352 6.21548 5.54363 6.14842 5.54363 6.13948C5.54363 6.1283 5.48552 6.07689 5.41622 6.02547L5.28657 5.92935L5.45199 5.91818L5.61964 5.907L5.66434 5.76618C5.68893 5.69017 5.71575 5.62758 5.72246 5.62758C5.72917 5.62758 5.75599 5.69017 5.78058 5.76618ZM7.68956 5.77288L7.7365 5.91594L7.90638 5.92265L8.07627 5.92935L7.93992 6.02547C7.86391 6.07912 7.80132 6.12606 7.80132 6.1283C7.80132 6.13277 7.82144 6.19312 7.84603 6.26466C7.87062 6.33619 7.89074 6.40325 7.89074 6.41442C7.89074 6.4256 7.83038 6.3943 7.75885 6.34289L7.62697 6.24901L7.50402 6.34066C7.4392 6.39207 7.37661 6.43231 7.3699 6.43231C7.3632 6.43231 7.38108 6.36301 7.41014 6.27807L7.46155 6.12383L7.3252 6.02547L7.18661 5.92935L7.35649 5.92265L7.52638 5.91594L7.55544 5.82429C7.59344 5.69688 7.62026 5.62758 7.63144 5.62758C7.63591 5.62758 7.66273 5.69241 7.68956 5.77288ZM9.60077 5.78182L9.64101 5.91594L9.81089 5.92265L9.98078 5.92935L9.84442 6.02771L9.70583 6.12383L9.75724 6.27807C9.7863 6.36301 9.80642 6.43231 9.79972 6.43231C9.79301 6.43231 9.73489 6.39207 9.66783 6.34289C9.60077 6.29371 9.54265 6.25348 9.53818 6.25348C9.53371 6.25348 9.47783 6.29371 9.41077 6.34289C9.34594 6.39207 9.28782 6.42783 9.28112 6.42336C9.27441 6.41442 9.31465 6.27136 9.35935 6.15065C9.36382 6.13501 9.30571 6.08136 9.2297 6.02771L9.09111 5.92935L9.261 5.92265L9.43088 5.91594L9.47783 5.77288C9.50465 5.69241 9.53371 5.63205 9.54265 5.63653C9.55159 5.64323 9.57842 5.70806 9.60077 5.78182ZM1.01708 6.59549L1.06178 6.73408L1.21826 6.74525L1.37473 6.75643L1.25626 6.84137C1.19367 6.88831 1.14002 6.93973 1.14002 6.95537C1.14002 6.97102 1.16014 7.04032 1.18249 7.10961C1.20708 7.18114 1.21826 7.23703 1.20932 7.23703C1.20038 7.23703 1.14002 7.19679 1.07296 7.14761C1.00367 7.0962 0.943312 7.06714 0.9299 7.07608C0.916488 7.08726 0.86284 7.12749 0.809192 7.16773C0.755544 7.2102 0.708602 7.23703 0.701896 7.23032C0.690719 7.21914 0.726484 7.09173 0.775662 6.95537C0.780132 6.9442 0.726484 6.89278 0.654954 6.84361L0.527539 6.75643L0.688484 6.74972L0.847193 6.74302L0.894135 6.58654C0.920959 6.49937 0.947783 6.43454 0.956724 6.44348C0.965665 6.45242 0.992489 6.51948 1.01708 6.59549ZM2.91935 6.58207L2.96182 6.73408L3.12276 6.74525L3.28371 6.75643L3.16077 6.84361C3.09371 6.89278 3.04006 6.93973 3.04006 6.94643C3.04006 6.95537 3.06018 7.0202 3.08476 7.09173C3.10935 7.16326 3.125 7.22585 3.11829 7.23256C3.11382 7.23926 3.05347 7.20126 2.98641 7.15208L2.8657 7.06043L2.73829 7.14985C2.66899 7.20126 2.60864 7.23703 2.60193 7.23256C2.59746 7.22585 2.61311 7.16326 2.6377 7.09173C2.66229 7.0202 2.6824 6.95314 2.6824 6.9442C2.6824 6.93526 2.62428 6.88608 2.55499 6.8369L2.42758 6.74749L2.59299 6.74078L2.75841 6.73408L2.80311 6.58207C2.82547 6.49937 2.85229 6.43231 2.86123 6.43231C2.86794 6.43231 2.89476 6.49937 2.91935 6.58207ZM4.82833 6.58878L4.87527 6.74302L5.03398 6.74972L5.19492 6.75643L5.06751 6.84361C4.99598 6.89278 4.94233 6.9442 4.9468 6.95537C4.99151 7.08055 5.03174 7.21914 5.02504 7.22809C5.01833 7.23256 4.95798 7.19679 4.89092 7.14761L4.76797 7.06043L4.64726 7.14761C4.58244 7.19679 4.52209 7.23703 4.51314 7.23703C4.5042 7.23703 4.51538 7.18114 4.53997 7.10961C4.56232 7.04032 4.58244 6.97102 4.58244 6.95314C4.58244 6.93749 4.52879 6.88608 4.4662 6.83914L4.34773 6.75643L4.5042 6.74525L4.66068 6.73408L4.69868 6.62231C4.7188 6.55972 4.74115 6.49266 4.74562 6.47031C4.7635 6.40548 4.77915 6.42783 4.82833 6.58878ZM6.73954 6.59549L6.78425 6.73408L6.94072 6.74525L7.09719 6.75643L6.97872 6.84137C6.91613 6.88831 6.86248 6.93973 6.86248 6.95537C6.86248 6.97102 6.8826 7.04032 6.90495 7.10961C6.92954 7.18114 6.94072 7.23703 6.93178 7.23703C6.92284 7.23703 6.86248 7.19679 6.79542 7.14761C6.72613 7.0962 6.66577 7.06714 6.65236 7.07608C6.63895 7.08726 6.5853 7.12749 6.53165 7.16773C6.47801 7.2102 6.43106 7.23703 6.42436 7.23032C6.41318 7.21914 6.44895 7.09173 6.49812 6.95537C6.50259 6.9442 6.44895 6.89278 6.37741 6.84361L6.25 6.75643L6.41094 6.74972L6.56965 6.74302L6.6166 6.58654C6.64342 6.49937 6.67024 6.43454 6.67918 6.44348C6.68813 6.45242 6.71495 6.51948 6.73954 6.59549ZM8.64181 6.58207L8.68428 6.73408L8.84523 6.74525L9.00617 6.75643L8.88323 6.84361C8.81617 6.89278 8.76252 6.93973 8.76252 6.94643C8.76252 6.95537 8.78264 7.0202 8.80723 7.09173C8.83181 7.16326 8.84746 7.22585 8.84076 7.23256C8.83628 7.23926 8.77593 7.20126 8.70887 7.15208L8.58816 7.06043L8.46075 7.14985C8.39145 7.20126 8.3311 7.23703 8.32439 7.23256C8.31992 7.22585 8.33557 7.16326 8.36016 7.09173C8.38475 7.0202 8.40487 6.95314 8.40487 6.9442C8.40487 6.93526 8.34675 6.88608 8.27745 6.8369L8.15004 6.74749L8.31545 6.74078L8.48087 6.73408L8.52557 6.58207C8.54793 6.49937 8.57475 6.43231 8.58369 6.43231C8.5904 6.43231 8.61722 6.49937 8.64181 6.58207ZM10.5508 6.58878L10.5977 6.74302L10.7564 6.74972L10.9174 6.75643L10.79 6.84361C10.7184 6.89278 10.6648 6.9442 10.6693 6.95537C10.714 7.08055 10.7542 7.21914 10.7475 7.22809C10.7408 7.23256 10.6804 7.19679 10.6134 7.14761L10.4904 7.06043L10.3697 7.14761C10.3049 7.19679 10.2445 7.23703 10.2356 7.23703C10.2267 7.23703 10.2378 7.18114 10.2624 7.10961C10.2848 7.04032 10.3049 6.97102 10.3049 6.95314C10.3049 6.93749 10.2513 6.88608 10.1887 6.83914L10.0702 6.75643L10.2267 6.74525L10.3831 6.73408L10.4211 6.62231C10.4413 6.55972 10.4636 6.49266 10.4681 6.47031C10.486 6.40548 10.5016 6.42783 10.5508 6.58878ZM2.18392 7.54997H2.35381L2.22192 7.64386C2.15039 7.69527 2.0878 7.73774 2.08333 7.73998C2.0811 7.74221 2.09898 7.80257 2.12357 7.8741C2.19063 8.06634 2.18169 8.07528 2.0498 7.97469C1.98274 7.92551 1.92239 7.88527 1.91121 7.88527C1.90227 7.88527 1.84862 7.9188 1.7905 7.95904C1.62509 8.07751 1.62956 8.07751 1.66756 7.95904C1.73462 7.73998 1.73686 7.74892 1.59603 7.64386L1.46638 7.54997H1.80168L1.85533 7.38679L1.90674 7.22585L1.96039 7.38679L2.01627 7.54997H2.18392ZM3.86937 7.3935L3.92078 7.54997H4.25608L4.12643 7.64386C3.98561 7.74892 3.98784 7.73998 4.0549 7.9568C4.07278 8.01716 4.08619 8.0641 4.08172 8.0641C4.07949 8.0641 4.02137 8.02386 3.95655 7.97469C3.89172 7.92551 3.8269 7.88527 3.81572 7.88527C3.80231 7.88527 3.73972 7.92551 3.67266 7.97469C3.54077 8.07528 3.53183 8.06634 3.59889 7.8741C3.62348 7.80257 3.64136 7.74221 3.63913 7.73998C3.63466 7.73774 3.57654 7.69751 3.50948 7.64833L3.38653 7.56115L3.54748 7.55444L3.70842 7.54774L3.75984 7.3935C3.78666 7.30632 3.81125 7.23703 3.81348 7.23703C3.81795 7.23703 3.84254 7.30632 3.86937 7.3935ZM7.90638 7.54997H8.07627L7.94439 7.64386C7.87285 7.69527 7.81027 7.73774 7.8058 7.73998C7.80356 7.74221 7.82144 7.80257 7.84603 7.8741C7.91309 8.06634 7.90415 8.07528 7.77226 7.97469C7.7052 7.92551 7.64485 7.88527 7.63367 7.88527C7.62473 7.88527 7.57108 7.9188 7.51297 7.95904C7.34755 8.07751 7.35202 8.07751 7.39002 7.95904C7.45708 7.73998 7.45932 7.74892 7.31849 7.64386L7.18884 7.54997H7.52414L7.57779 7.38679L7.6292 7.22585L7.68285 7.38679L7.73873 7.54997H7.90638ZM9.59183 7.3935L9.64324 7.54997H9.97854L9.84889 7.64386C9.70807 7.74892 9.7103 7.73998 9.77736 7.9568C9.79524 8.01716 9.80866 8.0641 9.80419 8.0641C9.80195 8.0641 9.74383 8.02386 9.67901 7.97469C9.61418 7.92551 9.54936 7.88527 9.53818 7.88527C9.52477 7.88527 9.46218 7.92551 9.39512 7.97469C9.26323 8.07528 9.25429 8.06634 9.32135 7.8741C9.34594 7.80257 9.36382 7.74221 9.36159 7.73998C9.35712 7.73774 9.299 7.69751 9.23194 7.64833L9.109 7.56115L9.26994 7.55444L9.43088 7.54774L9.4823 7.3935C9.50912 7.30632 9.53371 7.23703 9.53594 7.23703C9.54042 7.23703 9.565 7.30632 9.59183 7.3935ZM5.78058 7.39797L5.82529 7.5388L5.98847 7.54997L6.15165 7.56115L6.04435 7.63939C5.98623 7.68186 5.92811 7.72433 5.91694 7.73104C5.90576 7.73774 5.91917 7.81151 5.94376 7.89645C5.97058 7.97916 5.98847 8.05069 5.984 8.05516C5.98176 8.05963 5.92588 8.02163 5.86329 7.97245C5.79846 7.92551 5.73811 7.88527 5.72693 7.88527C5.71576 7.88527 5.65093 7.92551 5.58163 7.97692C5.5101 8.0261 5.45422 8.05739 5.45422 8.04622C5.45422 8.03504 5.47434 7.96798 5.49893 7.89645C5.52352 7.82492 5.54363 7.7601 5.54363 7.75115C5.54363 7.74221 5.48552 7.69751 5.41622 7.64833L5.28881 7.56115L5.45422 7.54997L5.61964 7.5388L5.66434 7.39797C5.68893 7.32197 5.71575 7.25938 5.72246 7.25938C5.72917 7.25938 5.75599 7.32197 5.78058 7.39797ZM1.00814 8.19822L1.05955 8.35246L1.2272 8.35917L1.39709 8.36587L1.26967 8.45528C1.19814 8.50446 1.14002 8.56035 1.14002 8.58046C1.14002 8.60058 1.16014 8.67211 1.18249 8.74141C1.20708 8.81294 1.22273 8.86882 1.21602 8.86882C1.20932 8.86882 1.1512 8.82635 1.0819 8.77717L0.961195 8.68329L0.827074 8.77717C0.753308 8.82859 0.692954 8.86212 0.692954 8.85094C0.692954 8.83976 0.713072 8.7727 0.737661 8.70117C0.76225 8.62964 0.782368 8.56929 0.782368 8.56482C0.782368 8.56258 0.719778 8.5134 0.643777 8.45752L0.505186 8.35469H0.847193L0.89637 8.19822C0.925429 8.11104 0.950018 8.04175 0.952253 8.04175C0.956724 8.04175 0.981313 8.11104 1.00814 8.19822ZM5.04515 8.35917L5.21504 8.36587L5.08763 8.45305C5.01833 8.49999 4.95574 8.54693 4.95127 8.55587C4.94456 8.56482 4.96021 8.63188 4.9848 8.70117C5.00939 8.7727 5.02951 8.83976 5.02951 8.85094C5.02951 8.86212 4.97139 8.82859 4.89762 8.77717L4.76574 8.68552L4.64279 8.77717C4.5735 8.82635 4.51314 8.86882 4.50644 8.86882C4.49973 8.86882 4.51538 8.81294 4.53997 8.74141C4.56232 8.67211 4.58244 8.60058 4.58244 8.58046C4.58244 8.56035 4.52432 8.50446 4.45726 8.45528L4.33208 8.36587L4.4975 8.35917L4.66291 8.35246L4.71656 8.19152L4.76797 8.03057L4.82162 8.19152L4.87527 8.35246L5.04515 8.35917ZM6.7306 8.19822L6.78201 8.35246L6.94966 8.35917L7.11955 8.36587L6.99213 8.45528C6.9206 8.50446 6.86248 8.56035 6.86248 8.58046C6.86248 8.60058 6.8826 8.67211 6.90495 8.74141C6.92954 8.81294 6.94519 8.86882 6.93848 8.86882C6.93178 8.86882 6.87366 8.82635 6.80436 8.77717L6.68366 8.68329L6.54954 8.77717C6.47577 8.82859 6.41542 8.86212 6.41542 8.85094C6.41542 8.83976 6.43553 8.7727 6.46012 8.70117C6.48471 8.62964 6.50483 8.56929 6.50483 8.56482C6.50483 8.56258 6.44224 8.5134 6.36624 8.45752L6.22765 8.35469H6.56965L6.61883 8.19822C6.64789 8.11104 6.67248 8.04175 6.67471 8.04175C6.67919 8.04175 6.70377 8.11104 6.7306 8.19822ZM10.7676 8.35917L10.9375 8.36587L10.8101 8.45305C10.7408 8.49999 10.6782 8.54693 10.6737 8.55587C10.667 8.56482 10.6827 8.63188 10.7073 8.70117C10.7318 8.7727 10.752 8.83976 10.752 8.85094C10.752 8.86212 10.6938 8.82859 10.6201 8.77717L10.4882 8.68552L10.3653 8.77717C10.296 8.82635 10.2356 8.86882 10.2289 8.86882C10.2222 8.86882 10.2378 8.81294 10.2624 8.74141C10.2848 8.67211 10.3049 8.60058 10.3049 8.58046C10.3049 8.56035 10.2468 8.50446 10.1797 8.45528L10.0545 8.36587L10.22 8.35917L10.3854 8.35246L10.439 8.19152L10.4904 8.03057L10.5441 8.19152L10.5977 8.35246L10.7676 8.35917ZM2.91935 8.20269L2.96406 8.34352L3.12947 8.35469L3.29489 8.36587L3.16747 8.46199C3.09818 8.5134 3.04006 8.56482 3.04006 8.57599C3.04006 8.58493 3.06018 8.65199 3.08476 8.72353C3.10935 8.79506 3.12724 8.85765 3.12276 8.86212C3.11829 8.86435 3.06018 8.82859 2.99535 8.77941C2.92829 8.73023 2.87017 8.68999 2.86347 8.68999C2.85676 8.68999 2.79417 8.73023 2.72935 8.77941C2.66229 8.82859 2.60417 8.86435 2.5997 8.85988C2.59523 8.85765 2.61311 8.79506 2.6377 8.72353C2.66229 8.65199 2.6824 8.58493 2.6824 8.57599C2.6824 8.56482 2.62428 8.5134 2.55499 8.46199L2.42758 8.36587L2.59299 8.35469L2.75841 8.34352L2.80311 8.20269C2.8277 8.12669 2.85452 8.0641 2.86123 8.0641C2.86794 8.0641 2.89476 8.12669 2.91935 8.20269ZM8.64181 8.20269L8.68652 8.34352L8.85193 8.35469L9.01735 8.36587L8.88993 8.46199C8.82064 8.5134 8.76252 8.56482 8.76252 8.57599C8.76252 8.58493 8.78264 8.65199 8.80723 8.72353C8.83181 8.79506 8.8497 8.85765 8.84523 8.86212C8.84076 8.86435 8.78264 8.82859 8.71781 8.77941C8.65075 8.73023 8.59263 8.68999 8.58593 8.68999C8.57922 8.68999 8.51663 8.73023 8.45181 8.77941C8.38475 8.82859 8.32663 8.86435 8.32216 8.85988C8.31769 8.85765 8.33557 8.79506 8.36016 8.72353C8.38475 8.65199 8.40487 8.58493 8.40487 8.57599C8.40487 8.56482 8.34675 8.5134 8.27745 8.46199L8.15004 8.36587L8.31545 8.35469L8.48087 8.34352L8.52557 8.20269C8.55016 8.12669 8.57699 8.0641 8.58369 8.0641C8.5904 8.0641 8.61722 8.12669 8.64181 8.20269Z" fill="white"/>
</g>
<defs>
<clipPath id="clip0">
<rect width="28.6123" height="16" fill="white" transform="translate(0 0.5)"/>
</clipPath>
</defs>
</svg>
